<svg xmlns="http://www.w3.org/2000/svg" width="173" height="42" viewBox="0 0 173 42" fill="none"><g clip-path="url(#clip0_2_54)"><path d="M9.31561 4.53152L0.00488281 13.7977L1.4779 15.2637L10.7886 5.99749L9.31561 4.53152Z" fill="black"/><path d="M23.6396 3.56827L6.19046 20.934L7.66348 22.3999L25.1126 5.03424L23.6396 3.56827Z" fill="black"/><path d="M26.7357 7.14425L17.425 16.4104L18.898 17.8764L28.2087 8.61023L26.7357 7.14425Z" fill="black"/><path d="M20.5435 0.0018331L3.09436 17.3675L4.56738 18.8335L22.0166 1.46781L20.5435 0.0018331Z" fill="black"/><path d="M32.4977 38.1905C31.7513 38.1905 31.0829 38.0263 30.4927 37.6894C29.9024 37.3612 29.4424 36.8861 29.1126 36.2727C28.7827 35.6594 28.6091 34.9251 28.6091 34.0786V28.1699H30.675V33.9404C30.675 34.7869 30.892 35.4175 31.3173 35.8235C31.7426 36.2295 32.3415 36.4282 33.1053 36.4282C33.9473 36.4282 34.6243 36.1432 35.1365 35.5817C35.6486 35.0202 35.909 34.1995 35.909 33.137V28.1699H37.9748V38.0091H35.9524V36.5319H35.6312C35.4402 36.9292 35.1104 37.3093 34.633 37.6635C34.1383 38.0091 33.4265 38.1905 32.4977 38.1905Z" fill="black"/><path d="M41.0128 38.009V28.1699H43.0352V29.3274H43.3563C43.5126 28.9128 43.773 28.6104 44.1289 28.4204C44.4847 28.2303 44.9187 28.1353 45.4395 28.1353H46.62V29.9926H45.3527C44.6844 29.9926 44.1375 30.174 43.7122 30.5454C43.2869 30.9082 43.0699 31.4697 43.0699 32.2299V38.009H41.0128Z" fill="black"/><path d="M53.0432 36.4541C53.9545 36.4541 54.6923 36.169 55.2565 35.5903C55.8207 35.0115 56.1072 34.2081 56.1072 33.1888V32.9987C56.1072 31.9708 55.8294 31.176 55.2652 30.5973C54.701 30.0185 53.9632 29.7248 53.0432 29.7248C52.1491 29.7248 51.4113 30.0098 50.8471 30.5973C50.2829 31.176 49.9965 31.9794 49.9965 32.9987V33.1801C49.9965 34.2081 50.2829 35.0029 50.8471 35.5816C51.42 36.1604 52.1491 36.4541 53.0432 36.4541ZM53.0432 38.2855C52.0536 38.2855 51.177 38.0781 50.4044 37.6808C49.6406 37.2748 49.033 36.696 48.5903 35.9358C48.1477 35.1756 47.9307 34.2772 47.9307 33.2406V32.9383C47.9307 31.9017 48.1477 31.0033 48.5903 30.2517C49.033 29.5002 49.6406 28.9214 50.4044 28.5068C51.177 28.0921 52.0536 27.8848 53.0432 27.8848C54.0327 27.8848 54.918 28.0921 55.6905 28.5068C56.4631 28.9214 57.0706 29.5002 57.5133 30.2517C57.956 31.0033 58.173 31.893 58.173 32.9383V33.2406C58.173 34.2772 57.956 35.1756 57.5133 35.9358C57.0706 36.696 56.4631 37.2748 55.6905 37.6808C54.918 38.0868 54.0327 38.2855 53.0432 38.2855Z" fill="black"/><path d="M71.9481 38.009V28.1699H73.9705V29.647H74.2917C74.4827 29.2497 74.8125 28.8782 75.2899 28.5327C75.7673 28.1871 76.4877 28.0144 77.4338 28.0144C78.1803 28.0144 78.8487 28.1785 79.4302 28.5154C80.0118 28.8437 80.4718 29.3188 80.8017 29.9235C81.1315 30.5282 81.3051 31.2538 81.3051 32.109V38.009H79.248V32.2645C79.248 31.4093 79.031 30.7873 78.6056 30.3813C78.1803 29.9753 77.5901 29.7766 76.8436 29.7766C75.9843 29.7766 75.2986 30.053 74.7865 30.6145C74.2743 31.176 74.0139 31.988 74.0139 33.0506V38.009H71.9481Z" fill="black"/><path d="M88.9521 36.2727C89.8461 36.2727 90.5839 35.9877 91.1655 35.4262C91.747 34.8647 92.0335 34.0786 92.0335 33.0852V32.9037C92.0335 31.8758 91.747 31.0897 91.1742 30.5368C90.6013 29.984 89.8548 29.7075 88.9521 29.7075C88.0667 29.7075 87.3376 29.984 86.7561 30.5368C86.1745 31.0897 85.8794 31.8758 85.8794 32.9037V33.0852C85.8794 34.0872 86.1745 34.8647 86.7561 35.4262C87.3376 35.9877 88.0667 36.2727 88.9521 36.2727ZM83.7962 33.137V32.8346C83.7962 31.798 84.0045 30.9169 84.4298 30.1826C84.8552 29.4484 85.4107 28.8869 86.1051 28.4895C86.7995 28.0921 87.5633 27.8935 88.3879 27.8935C89.3514 27.8935 90.0892 28.0749 90.6013 28.429C91.1134 28.7919 91.4953 29.1719 91.7384 29.5866H92.0595V28.1699H94.0646V40.0218C94.0646 40.6179 93.891 41.1016 93.5351 41.4558C93.1792 41.81 92.6931 41.9914 92.0769 41.9914H85.4194V40.1946H91.4346C91.8251 40.1946 92.0161 39.9959 92.0161 39.5985V36.4628H91.695C91.5474 36.7047 91.3391 36.9465 91.07 37.2057C90.8009 37.4562 90.4537 37.6635 90.0197 37.8276C89.5857 37.9918 89.0389 38.0695 88.3879 38.0695C87.5546 38.0695 86.7908 37.8708 86.0877 37.4821C85.3846 37.0934 84.8291 36.5232 84.4125 35.789C84.0045 35.0461 83.7962 34.165 83.7962 33.137Z" fill="black"/><path d="M97.1113 28.1699H99.1771V38.009H97.1113V28.1699ZM98.1529 26.8309C97.7536 26.8309 97.4151 26.7013 97.1373 26.4422C96.8596 26.183 96.7294 25.8461 96.7294 25.4315C96.7294 25.0169 96.8683 24.68 97.1373 24.4208C97.4064 24.1617 97.7449 24.0321 98.1529 24.0321C98.5695 24.0321 98.908 24.1617 99.1771 24.4208C99.4462 24.68 99.5764 25.0169 99.5764 25.4315C99.5764 25.8461 99.4375 26.183 99.1771 26.4422C98.908 26.7013 98.5695 26.8309 98.1529 26.8309Z" fill="black"/><path d="M102.241 38.009V28.1699H104.264V29.647H104.585C104.776 29.2497 105.105 28.8782 105.583 28.5327C106.06 28.1871 106.781 28.0144 107.727 28.0144C108.473 28.0144 109.142 28.1785 109.723 28.5154C110.305 28.8437 110.765 29.3188 111.095 29.9235C111.424 30.5282 111.598 31.2538 111.598 32.109V38.009H109.532V32.2645C109.532 31.4093 109.315 30.7873 108.89 30.3813C108.465 29.9753 107.874 29.7766 107.128 29.7766C106.269 29.7766 105.592 30.053 105.071 30.6145C104.559 31.176 104.298 31.988 104.298 33.0506V38.009H102.241Z" fill="black"/><path d="M116.216 32.0831H121.693C121.641 31.3402 121.372 30.7528 120.894 30.3381C120.417 29.9235 119.783 29.7075 119.011 29.7075C118.238 29.7075 117.605 29.9148 117.119 30.3381C116.624 30.7528 116.329 31.3402 116.216 32.0831ZM119.106 38.2855C118.099 38.2855 117.231 38.0781 116.476 37.6549C115.73 37.2316 115.14 36.6442 114.723 35.8753C114.298 35.1152 114.089 34.2254 114.089 33.2147V32.9728C114.089 31.9535 114.298 31.0551 114.714 30.2863C115.131 29.5261 115.704 28.93 116.45 28.5068C117.188 28.0835 118.047 27.8762 119.028 27.8762C119.974 27.8762 120.808 28.0835 121.528 28.5068C122.24 28.9214 122.804 29.5088 123.203 30.2517C123.602 30.9946 123.802 31.8671 123.802 32.8692V33.6466H116.207C116.233 34.5105 116.528 35.2015 117.084 35.7112C117.639 36.2209 118.334 36.48 119.158 36.48C119.931 36.48 120.521 36.3073 120.912 35.9617C121.302 35.6162 121.615 35.2188 121.823 34.761L123.524 35.6421C123.333 36.0135 123.064 36.4109 122.717 36.8169C122.361 37.2316 121.901 37.5771 121.32 37.8535C120.738 38.1472 120 38.2855 119.106 38.2855Z" fill="black"/><path d="M127.925 32.0831H133.402C133.35 31.3402 133.081 30.7528 132.604 30.3381C132.126 29.9235 131.493 29.7075 130.72 29.7075C129.947 29.7075 129.314 29.9148 128.828 30.3381C128.333 30.7528 128.038 31.3402 127.925 32.0831ZM130.815 38.2855C129.809 38.2855 128.941 38.0781 128.185 37.6549C127.439 37.2316 126.849 36.6442 126.432 35.8753C126.007 35.1152 125.798 34.2254 125.798 33.2147V32.9728C125.798 31.9535 126.007 31.0551 126.423 30.2863C126.84 29.5261 127.413 28.93 128.159 28.5068C128.897 28.0835 129.757 27.8762 130.737 27.8762C131.683 27.8762 132.517 28.0835 133.237 28.5068C133.949 28.9214 134.513 29.5088 134.912 30.2517C135.312 30.9946 135.511 31.8671 135.511 32.8692V33.6466H127.916C127.942 34.5105 128.238 35.2015 128.793 35.7112C129.349 36.2209 130.043 36.48 130.868 36.48C131.64 36.48 132.23 36.3073 132.621 35.9617C133.011 35.6162 133.324 35.2188 133.532 34.761L135.234 35.6421C135.043 36.0135 134.774 36.4109 134.426 36.8169C134.07 37.2316 133.61 37.5771 133.029 37.8535C132.447 38.1472 131.71 38.2855 130.815 38.2855Z" fill="black"/><path d="M137.994 38.009V28.1699H140.016V29.3274H140.337C140.494 28.9128 140.754 28.6104 141.11 28.4204C141.466 28.2303 141.9 28.1353 142.421 28.1353H143.601V29.9926H142.334C141.665 29.9926 141.119 30.174 140.693 30.5454C140.268 30.9082 140.051 31.4697 140.051 32.2299V38.009H137.994Z" fill="black"/><path d="M145.754 28.1699H147.82V38.009H145.754V28.1699ZM146.795 26.8309C146.396 26.8309 146.057 26.7013 145.78 26.4422C145.502 26.183 145.372 25.8461 145.372 25.4315C145.372 25.0169 145.511 24.68 145.78 24.4208C146.049 24.1617 146.387 24.0321 146.795 24.0321C147.212 24.0321 147.55 24.1617 147.82 24.4208C148.089 24.68 148.219 25.0169 148.219 25.4315C148.219 25.8461 148.089 26.183 147.82 26.4422C147.55 26.7013 147.203 26.8309 146.795 26.8309Z" fill="black"/><path d="M150.884 38.009V28.1699H152.906V29.647H153.227C153.418 29.2497 153.748 28.8782 154.225 28.5327C154.703 28.1871 155.423 28.0144 156.369 28.0144C157.116 28.0144 157.784 28.1785 158.366 28.5154C158.947 28.8437 159.407 29.3188 159.737 29.9235C160.067 30.5282 160.241 31.2538 160.241 32.109V38.009H158.175V32.2645C158.175 31.4093 157.958 30.7873 157.532 30.3813C157.107 29.9753 156.517 29.7766 155.77 29.7766C154.911 29.7766 154.234 30.053 153.713 30.6145C153.201 31.176 152.941 31.988 152.941 33.0506V38.009H150.884Z" fill="black"/><path d="M167.888 36.2727C168.782 36.2727 169.519 35.9877 170.101 35.4262C170.682 34.8647 170.969 34.0786 170.969 33.0852V32.9037C170.969 31.8758 170.682 31.0897 170.11 30.5368C169.537 29.984 168.79 29.7075 167.888 29.7075C167.002 29.7075 166.273 29.984 165.691 30.5368C165.11 31.0897 164.823 31.8758 164.823 32.9037V33.0852C164.823 34.0872 165.119 34.8647 165.691 35.4262C166.273 35.9877 167.002 36.2727 167.888 36.2727ZM162.732 33.137V32.8346C162.732 31.798 162.94 30.9169 163.365 30.1826C163.791 29.4484 164.346 28.8869 165.04 28.4895C165.735 28.0921 166.499 27.8935 167.323 27.8935C168.287 27.8935 169.025 28.0749 169.537 28.429C170.049 28.7919 170.431 29.1719 170.674 29.5866H170.995V28.1699H173V40.0218C173 40.6179 172.826 41.1016 172.471 41.4558C172.115 41.8186 171.629 41.9914 171.021 41.9914H164.363V40.1946H170.379C170.761 40.1946 170.96 39.9959 170.96 39.5985V36.4628H170.639C170.492 36.7047 170.283 36.9465 170.023 37.2057C169.754 37.4562 169.407 37.6635 168.973 37.8276C168.539 37.9918 167.992 38.0695 167.341 38.0695C166.516 38.0695 165.744 37.8708 165.04 37.4821C164.337 37.0934 163.782 36.5232 163.365 35.789C162.94 35.0461 162.732 34.165 162.732 33.137Z" fill="black"/><path d="M19.608 36.0568V31.9621H25.7187V30.0099H19.608V25.993H26.2829V24.0407H17.438V36.0481L19.4083 38.009H26.3783V36.0568H19.608Z" fill="black"/><path d="M62.8515 36.0568V31.9621H68.9622V30.0099H62.8515V25.993H69.5264V24.0407H60.6815V36.0481L62.6519 38.009H69.6219V36.0568H62.8515Z" fill="black"/></g><defs><clipPath id="clip0_2_54"><rect width="173" height="42" fill="white"/></clipPath></defs></svg>